<?xml version="1.0" encoding="UTF-8"?>
<svg width="1024px" height="1024px" viewBox="0 0 1024 1024" version="1.1" xmlns="http://www.w3.org/2000/svg" xmlns:xlink="http://www.w3.org/1999/xlink">
    <title>iOS app icon@1x</title>
    <defs>
        <linearGradient x1="20.8407792%" y1="79.381711%" x2="80.4817661%" y2="20.5806414%" id="linearGradient-1">
            <stop stop-color="#F2E1B8" offset="0%"></stop>
            <stop stop-color="#99CBE4" offset="100%"></stop>
        </linearGradient>
    </defs>
    <g id="iOS-app-icon" stroke="none" stroke-width="1" fill="none" fill-rule="evenodd">
        <g id="polygon_app_icon">
            <g id="path-2-link" fill="url(#linearGradient-1)">
                <rect id="path-2" x="0" y="0" width="1024" height="1024"></rect>
            </g>
            <g id="Group" transform="translate(312, 312)" fill-rule="nonzero">
                <g id="icons8-close_up-2">
                    <path d="M0,200 C0,398.947368 155.789474,400 178.947368,400 C202.105263,400 221.052632,400 221.052632,400 C221.052632,400 201.052632,226.315789 0,200 Z" id="Path" fill="#2E7D32"></path>
                    <polygon id="Path" fill="#388E3C" points="178.947368 221.052632 221.052632 221.052632 221.052632 400 178.947368 400"></polygon>
                    <path d="M305.263158,115.789474 C305.263158,169.473684 250.526316,202.105263 221.052632,202.105263 C191.578947,202.105263 200,169.473684 200,115.789474 C200,62.1052632 252.631579,18.9473684 252.631579,18.9473684 C252.631579,18.9473684 305.263158,62.1052632 305.263158,115.789474 Z" id="Path" fill="#C62828"></path>
                    <path d="M94.7368421,115.789474 C94.7368421,169.473684 149.473684,202.105263 178.947368,202.105263 C208.421053,202.105263 200,169.473684 200,115.789474 C200,62.1052632 147.368421,18.9473684 147.368421,18.9473684 C147.368421,18.9473684 94.7368421,62.1052632 94.7368421,115.789474 Z" id="Path" fill="#C62828"></path>
                    <path d="M200,231.578947 C176.842105,214.736842 180,184.210526 225.263158,138.947368 C271.578947,92.6315789 284.210526,21.0526316 284.210526,21.0526316 C284.210526,21.0526316 336.842105,56.8421053 336.842105,115.789474 C336.842105,177.894737 276.842105,231.578947 200,231.578947 Z" id="Path" fill="#E53935"></path>
                    <path d="M200,231.578947 C223.157895,214.736842 220,184.210526 174.736842,138.947368 C128.421053,92.6315789 115.789474,21.0526316 115.789474,21.0526316 C115.789474,21.0526316 63.1578947,56.8421053 63.1578947,115.789474 C63.1578947,177.894737 123.157895,231.578947 200,231.578947 Z" id="Path" fill="#E53935"></path>
                    <path d="M263.157895,115.789474 C263.157895,180 234.736842,231.578947 200,231.578947 C165.263158,231.578947 136.842105,180 136.842105,115.789474 C136.842105,51.5789474 200,0 200,0 C200,0 263.157895,51.5789474 263.157895,115.789474 Z" id="Path" fill="#F44336"></path>
                    <path d="M178.947368,400 C178.947368,400 197.894737,400 221.052632,400 C244.210526,400 400,398.947368 400,200 C198.947368,226.315789 178.947368,400 178.947368,400 Z" id="Path" fill="#4CAF50"></path>
                </g>
            </g>
        </g>
    </g>
</svg>