<?xml version="1.0" encoding="UTF-8"?>
<svg width="1024px" height="1024px" viewBox="0 0 1024 1024" version="1.1" xmlns="http://www.w3.org/2000/svg" xmlns:xlink="http://www.w3.org/1999/xlink">
    <title>iOS app icon@1x</title>
    <defs>
        <linearGradient x1="20.8407792%" y1="79.381711%" x2="80.4817661%" y2="20.5806414%" id="linearGradient-1">
            <stop stop-color="#F2E1B8" offset="0%"></stop>
            <stop stop-color="#99CBE4" offset="100%"></stop>
        </linearGradient>
    </defs>
    <g id="iOS-app-icon" stroke="none" stroke-width="1" fill="none" fill-rule="evenodd">
        <g id="polygon_app_icon">
            <g id="path-2-link" fill="url(#linearGradient-1)">
                <rect id="path-2" x="0" y="0" width="1024" height="1024"></rect>
            </g>
            <g id="Group" transform="translate(185, 195)" fill-rule="nonzero">
                <g id="icons8-close_up-2" transform="translate(127, 117)">
                    <path d="M0,200 C0,398.947368 155.789474,400 178.947368,400 C202.105263,400 221.052632,400 221.052632,400 C221.052632,400 201.052632,226.315789 0,200 Z" id="Path" fill="#2E7D32"></path>
                    <polygon id="Path" fill="#388E3C" points="178.947368 221.052632 221.052632 221.052632 221.052632 400 178.947368 400"></polygon>
                    <path d="M305.263158,115.789474 C305.263158,169.473684 250.526316,202.105263 221.052632,202.105263 C191.578947,202.105263 200,169.473684 200,115.789474 C200,62.1052632 252.631579,18.9473684 252.631579,18.9473684 C252.631579,18.9473684 305.263158,62.1052632 305.263158,115.789474 Z" id="Path" fill="#C62828"></path>
                    <path d="M94.7368421,115.789474 C94.7368421,169.473684 149.473684,202.105263 178.947368,202.105263 C208.421053,202.105263 200,169.473684 200,115.789474 C200,62.1052632 147.368421,18.9473684 147.368421,18.9473684 C147.368421,18.9473684 94.7368421,62.1052632 94.7368421,115.789474 Z" id="Path" fill="#C62828"></path>
                    <path d="M200,231.578947 C176.842105,214.736842 180,184.210526 225.263158,138.947368 C271.578947,92.6315789 284.210526,21.0526316 284.210526,21.0526316 C284.210526,21.0526316 336.842105,56.8421053 336.842105,115.789474 C336.842105,177.894737 276.842105,231.578947 200,231.578947 Z" id="Path" fill="#E53935"></path>
                    <path d="M200,231.578947 C223.157895,214.736842 220,184.210526 174.736842,138.947368 C128.421053,92.6315789 115.789474,21.0526316 115.789474,21.0526316 C115.789474,21.0526316 63.1578947,56.8421053 63.1578947,115.789474 C63.1578947,177.894737 123.157895,231.578947 200,231.578947 Z" id="Path" fill="#E53935"></path>
                    <path d="M263.157895,115.789474 C263.157895,180 234.736842,231.578947 200,231.578947 C165.263158,231.578947 136.842105,180 136.842105,115.789474 C136.842105,51.5789474 200,0 200,0 C200,0 263.157895,51.5789474 263.157895,115.789474 Z" id="Path" fill="#F44336"></path>
                    <path d="M178.947368,400 C178.947368,400 197.894737,400 221.052632,400 C244.210526,400 400,398.947368 400,200 C198.947368,226.315789 178.947368,400 178.947368,400 Z" id="Path" fill="#4CAF50"></path>
                </g>
                <path d="M17.3891362,0.00174609296 C7.78759413,0.00270610317 0.00424632092,7.78605391 0.00328631071,17.387596 L0.00328631071,156.474395 C-0.0853865578,162.744357 3.20880754,168.576361 8.62445725,171.737219 C14.040107,174.898077 20.7381655,174.898077 26.1538152,171.737219 C31.5694649,168.576361 34.863659,162.744357 34.7749861,156.474395 L34.7749861,34.7734459 L156.475936,34.7734459 C162.745897,34.8621188 168.577902,31.5679247 171.73876,26.152275 C174.899618,20.7366253 174.899618,14.0385667 171.73876,8.62291703 C168.577902,3.20726732 162.745897,-0.0869267756 156.475936,0.00174609296 L17.3891362,0.00174609296 Z M226.019335,0.00174609296 C219.749373,-0.0869267756 213.917369,3.20726732 210.756511,8.62291703 C207.595653,14.0385667 207.595653,20.7366253 210.756511,26.152275 C213.917369,31.5679247 219.749373,34.8621188 226.019335,34.7734459 L295.562735,34.7734459 C301.832697,34.8621188 307.664701,31.5679247 310.825559,26.152275 C313.986417,20.7366253 313.986417,14.0385667 310.825559,8.62291703 C307.664701,3.20726732 301.832697,-0.0869267756 295.562735,0.00174609296 L226.019335,0.00174609296 Z M365.106134,0.00174609296 C358.836173,-0.0869267756 353.004168,3.20726732 349.84331,8.62291703 C346.682452,14.0385667 346.682452,20.7366253 349.84331,26.152275 C353.004168,31.5679247 358.836173,34.8621188 365.106134,34.7734459 L434.649534,34.7734459 C440.919496,34.8621188 446.7515,31.5679247 449.912358,26.152275 C453.073216,20.7366253 453.073216,14.0385667 449.912358,8.62291703 C446.7515,3.20726732 440.919496,-0.0869267756 434.649534,0.00174609296 L365.106134,0.00174609296 Z M504.192934,0.00174609296 C497.922972,-0.0869267756 492.090968,3.20726732 488.93011,8.62291703 C485.769252,14.0385667 485.769252,20.7366253 488.93011,26.152275 C492.090968,31.5679247 497.922972,34.8621188 504.192934,34.7734459 L625.893883,34.7734459 L625.893883,156.474395 C625.80521,162.744357 629.099404,168.576361 634.515054,171.737219 C639.930704,174.898077 646.628762,174.898077 652.044412,171.737219 C657.460062,168.576361 660.754256,162.744357 660.665583,156.474395 L660.665583,17.387596 C660.664623,7.78605391 652.881275,0.00270610317 643.279733,0.00174609296 L504.192934,0.00174609296 Z M17.1174823,208.394246 C7.5289045,208.54413 -0.128024148,216.428945 0.00328631071,226.017795 L0.00328631071,295.561195 C-0.0853865578,301.831156 3.20880754,307.663161 8.62445725,310.824019 C14.040107,313.984877 20.7381655,313.984877 26.1538152,310.824019 C31.5694649,307.663161 34.863659,301.831156 34.7749861,295.561195 L34.7749861,226.017795 C34.8393392,221.318394 32.9985578,216.793095 29.6720711,213.473005 C26.3455844,210.152915 21.8167508,208.320847 17.1174823,208.394246 Z M643.008079,208.394246 C633.419501,208.54413 625.762573,216.428945 625.893883,226.017795 L625.893883,295.561195 C625.80521,301.831156 629.099404,307.663161 634.515054,310.824019 C639.930704,313.984877 646.628762,313.984877 652.044412,310.824019 C657.460062,307.663161 660.754256,301.831156 660.665583,295.561195 L660.665583,226.017795 C660.729936,221.318394 658.889155,216.793095 655.562668,213.473005 C652.236181,210.152915 647.707348,208.320847 643.008079,208.394246 Z M17.1174823,347.481045 C7.5289045,347.63093 -0.128024148,355.515744 0.00328631071,365.104594 L0.00328631071,434.647994 C-0.0853865578,440.917956 3.20880754,446.74996 8.62445725,449.910818 C14.040107,453.071676 20.7381655,453.071676 26.1538152,449.910818 C31.5694649,446.74996 34.863659,440.917956 34.7749861,434.647994 L34.7749861,365.104594 C34.8393392,360.405193 32.9985578,355.879894 29.6720711,352.559804 C26.3455844,349.239714 21.8167508,347.407647 17.1174823,347.481045 Z M643.008079,347.481045 C633.419501,347.63093 625.762573,355.515744 625.893883,365.104594 L625.893883,434.647994 C625.80521,440.917956 629.099404,446.74996 634.515054,449.910818 C639.930704,453.071676 646.628762,453.071676 652.044412,449.910818 C657.460062,446.74996 660.754256,440.917956 660.665583,434.647994 L660.665583,365.104594 C660.729936,360.405193 658.889155,355.879894 655.562668,352.559804 C652.236181,349.239714 647.707348,347.407647 643.008079,347.481045 Z M17.1174823,486.567844 C7.5289045,486.717729 -0.128024148,494.602543 0.00162235511,504.191394 L0.00162235511,643.278193 C0.00424632092,652.879735 7.78759413,660.663083 17.3891362,660.664043 L156.475936,660.664043 C162.745897,660.752716 168.577902,657.458521 171.73876,652.042872 C174.899618,646.627222 174.899618,639.929164 171.73876,634.513514 C168.577902,629.097864 162.745897,625.80367 156.475936,625.892343 L34.7749861,625.892343 L34.7749861,504.191394 C34.8393392,499.491992 32.9985578,494.966694 29.6720711,491.646604 C26.3455844,488.326514 21.8167508,486.494446 17.1174823,486.567844 Z M643.008079,486.565721 C633.419501,486.717729 625.762573,494.602543 625.893883,504.191394 L625.893883,625.892343 L504.192934,625.892343 C497.922972,625.80367 492.090968,629.097864 488.93011,634.513514 C485.769252,639.929164 485.769252,646.627222 488.93011,652.042872 C492.090968,657.458521 497.922972,660.752716 504.192934,660.664043 L625.893883,660.664043 L625.893883,782.364992 C625.80521,788.634954 629.099404,794.466958 634.515054,797.627816 C639.930704,800.788674 646.628762,800.788674 652.044412,797.627816 C657.460062,794.466958 660.754256,788.634954 660.665583,782.364992 L660.665583,660.664043 L782.366532,660.664043 C788.636494,660.752716 794.468498,657.458521 797.629356,652.042872 C800.790215,646.627222 800.790215,639.929164 797.629356,634.513514 C794.468498,629.097864 788.636494,625.80367 782.366532,625.892343 L660.665583,625.892343 L660.665583,504.191394 C660.729936,499.491992 658.889155,494.966694 655.562668,491.646604 C652.236181,488.326514 647.707348,486.494446 643.008079,486.565721 Z M226.019335,625.892343 C219.749373,625.80367 213.917369,629.097864 210.756511,634.513514 C207.595653,639.929164 207.595653,646.627222 210.756511,652.042872 C213.917369,657.458521 219.749373,660.752716 226.019335,660.664043 L295.562735,660.664043 C301.832697,660.752716 307.664701,657.458521 310.825559,652.042872 C313.986417,646.627222 313.986417,639.929164 310.825559,634.513514 C307.664701,629.097864 301.832697,625.80367 295.562735,625.892343 L226.019335,625.892343 Z M365.106134,625.892343 C358.836173,625.80367 353.004168,629.097864 349.84331,634.513514 C346.682452,639.929164 346.682452,646.627222 349.84331,652.042872 C353.004168,657.458521 358.836173,660.752716 365.106134,660.664043 L434.649534,660.664043 C440.919496,660.752716 446.7515,657.458521 449.912358,652.042872 C453.073216,646.627222 453.073216,639.929164 449.912358,634.513514 C446.7515,629.097864 440.919496,625.80367 434.649534,625.892343 L365.106134,625.892343 Z" id="Shape" fill="#000000"></path>
            </g>
        </g>
    </g>
</svg>