<?xml version="1.0" encoding="UTF-8"?>
<svg width="1024px" height="1024px" viewBox="0 0 1024 1024" version="1.1" xmlns="http://www.w3.org/2000/svg" xmlns:xlink="http://www.w3.org/1999/xlink">
    <title>mac app icon@1x</title>
    <defs>
        <path d="M824,256.627066 C824,246.845101 824,237.062137 823.943901,227.279173 C823.894902,219.038203 823.799902,210.799233 823.575904,202.562263 C823.091908,184.609328 822.032915,166.502394 818.839939,148.749458 C815.601963,130.740524 810.314002,113.979585 801.981064,97.6166446 C793.789124,81.5337032 783.088204,66.8167567 770.320298,54.0578032 C757.555393,41.2988496 742.834502,30.6048886 726.745621,22.4179184 C710.365742,14.0829487 693.586866,8.79696797 675.558,5.55997976 C657.803131,2.37199136 639.691265,1.31499521 621.738398,0.829996978 C613.495459,0.60699779 605.25252,0.512998132 597.007581,0.461998318 C587.219653,0.401998536 577.431726,0.406998518 567.643798,0.406998518 L453.99664,0 L368.997269,0 L257.361095,0.406998518 C247.554168,0.406998518 237.74724,0.401998536 227.940313,0.461998318 C219.678374,0.512998132 211.420435,0.60699779 203.161496,0.829996978 C185.166629,1.31499521 167.013764,2.37299136 149.216896,5.56497974 C131.164029,8.80096796 114.360154,14.0849487 97.9582749,22.4139184 C81.8353943,30.6018886 67.0825035,41.2968496 54.2905981,54.0578032 C41.5006928,66.8157567 30.7797722,81.5297032 22.5728329,97.6096446 C14.2168948,113.980585 8.91893398,130.751524 5.67295801,148.770458 C2.47698167,166.516394 1.4179895,184.617328 0.930993109,202.562263 C0.708994752,210.800233 0.612995463,219.039203 0.562995833,227.279173 C0.502996277,237.063137 0,249.216093 0,258.999057 L0,369.088656 L0,454.998343 L0.50799624,567.426934 C0.50799624,577.222898 0.503996269,587.018863 0.562995833,596.814827 C0.612995463,605.066797 0.708994752,613.316767 0.931993101,621.565737 C1.4179895,639.541672 2.47898165,657.674606 5.67795797,675.451541 C8.92293395,693.484475 14.2198947,710.269414 22.5688329,726.653354 C30.7767722,742.759296 41.4996928,757.495242 54.2905981,770.272196 C67.0815035,783.049149 81.8303943,793.75711 97.950275,801.95608 C114.362153,810.30205 131.174029,815.595031 149.237895,818.836019 C167.026764,822.029007 185.173629,823.088003 203.161496,823.573002 C211.420435,823.796001 219.679374,823.891 227.941313,823.941 C237.74824,824 247.554168,824 257.361095,824 L370.006261,824 L455.216631,824 L567.643798,824 C577.431726,824 587.219653,824 597.007581,823.941 C605.25252,823.891 613.495459,823.796001 621.738398,823.573002 C639.698265,823.087003 657.816131,822.027007 675.578999,818.832019 C693.596866,815.591031 710.367742,810.30005 726.738621,801.95908 C742.830502,793.76111 757.554393,783.051149 770.320298,770.272196 C783.086204,757.497242 793.786124,742.763296 801.978064,726.660354 C810.316002,710.268414 815.603963,693.475475 818.843939,675.430541 C822.033915,657.660606 823.091908,639.534672 823.576904,621.565737 C823.799902,613.315767 823.894902,605.065797 823.943901,596.814827 C824,587.018863 824,577.222898 824,567.426934 C824,567.426934 824,456.983336 824,454.998343 L824,368.998657 C824,367.532662 824,256.627066 824,256.627066" id="path-1"></path>
        <filter x="-2.4%" y="-1.2%" width="104.9%" height="104.9%" filterUnits="objectBoundingBox" id="filter-3">
            <feOffset dx="0" dy="10" in="SourceAlpha" result="shadowOffsetOuter1"></feOffset>
            <feGaussianBlur stdDeviation="5" in="shadowOffsetOuter1" result="shadowBlurOuter1"></feGaussianBlur>
            <feColorMatrix values="0 0 0 0 0   0 0 0 0 0   0 0 0 0 0  0 0 0 0.3 0" type="matrix" in="shadowBlurOuter1"></feColorMatrix>
        </filter>
        <linearGradient x1="20.8407792%" y1="79.381711%" x2="80.4817661%" y2="20.5806414%" id="linearGradient-4">
            <stop stop-color="#D3A2ED" offset="0%"></stop>
            <stop stop-color="#A3D0E6" offset="100%"></stop>
        </linearGradient>
    </defs>
    <g id="mac-app-icon" stroke="none" stroke-width="1" fill="none" fill-rule="evenodd">
        <g id="Artwork" transform="translate(100, 114)">
            <mask id="mask-2" fill="white">
                <use xlink:href="#path-1"></use>
            </mask>
            <g id="Mask">
                <use fill="black" fill-opacity="1" filter="url(#filter-3)" xlink:href="#path-1"></use>
                <use fill="#FFFFFF" fill-rule="evenodd" xlink:href="#path-1"></use>
            </g>
            <g id="Icon-Center-Image-Artwork" mask="url(#mask-2)"></g>
            <rect id="path-2" fill="url(#linearGradient-4)" mask="url(#mask-2)" x="-100" y="-100" width="1024" height="1024"></rect>
            <g id="icons8-close_up-2" mask="url(#mask-2)" fill-rule="nonzero">
                <g transform="translate(212, 198)" id="Path">
                    <path d="M0,200 C0,398.947368 155.789474,400 178.947368,400 C202.105263,400 221.052632,400 221.052632,400 C221.052632,400 201.052632,226.315789 0,200 Z" fill="#2E7D32"></path>
                    <polygon fill="#388E3C" points="178.947368 221.052632 221.052632 221.052632 221.052632 400 178.947368 400"></polygon>
                    <path d="M305.263158,115.789474 C305.263158,169.473684 250.526316,202.105263 221.052632,202.105263 C191.578947,202.105263 200,169.473684 200,115.789474 C200,62.1052632 252.631579,18.9473684 252.631579,18.9473684 C252.631579,18.9473684 305.263158,62.1052632 305.263158,115.789474 Z" fill="#C62828"></path>
                    <path d="M94.7368421,115.789474 C94.7368421,169.473684 149.473684,202.105263 178.947368,202.105263 C208.421053,202.105263 200,169.473684 200,115.789474 C200,62.1052632 147.368421,18.9473684 147.368421,18.9473684 C147.368421,18.9473684 94.7368421,62.1052632 94.7368421,115.789474 Z" fill="#C62828"></path>
                    <path d="M200,231.578947 C176.842105,214.736842 180,184.210526 225.263158,138.947368 C271.578947,92.6315789 284.210526,21.0526316 284.210526,21.0526316 C284.210526,21.0526316 336.842105,56.8421053 336.842105,115.789474 C336.842105,177.894737 276.842105,231.578947 200,231.578947 Z" fill="#E53935"></path>
                    <path d="M200,231.578947 C223.157895,214.736842 220,184.210526 174.736842,138.947368 C128.421053,92.6315789 115.789474,21.0526316 115.789474,21.0526316 C115.789474,21.0526316 63.1578947,56.8421053 63.1578947,115.789474 C63.1578947,177.894737 123.157895,231.578947 200,231.578947 Z" fill="#E53935"></path>
                    <path d="M263.157895,115.789474 C263.157895,180 234.736842,231.578947 200,231.578947 C165.263158,231.578947 136.842105,180 136.842105,115.789474 C136.842105,51.5789474 200,0 200,0 C200,0 263.157895,51.5789474 263.157895,115.789474 Z" fill="#F44336"></path>
                    <path d="M178.947368,400 C178.947368,400 197.894737,400 221.052632,400 C244.210526,400 400,398.947368 400,200 C198.947368,226.315789 178.947368,400 178.947368,400 Z" fill="#4CAF50"></path>
                </g>
            </g>
        </g>
        <path d="M202.389136,195.001746 C192.787594,195.002706 185.004246,202.786054 185.003286,212.387596 L185.003286,351.474395 C184.914613,357.744357 188.208808,363.576361 193.624457,366.737219 C199.040107,369.898077 205.738165,369.898077 211.153815,366.737219 C216.569465,363.576361 219.863659,357.744357 219.774986,351.474395 L219.774986,229.773446 L341.475936,229.773446 C347.745897,229.862119 353.577902,226.567925 356.73876,221.152275 C359.899618,215.736625 359.899618,209.038567 356.73876,203.622917 C353.577902,198.207267 347.745897,194.913073 341.475936,195.001746 L202.389136,195.001746 Z M411.019335,195.001746 C404.749373,194.913073 398.917369,198.207267 395.756511,203.622917 C392.595653,209.038567 392.595653,215.736625 395.756511,221.152275 C398.917369,226.567925 404.749373,229.862119 411.019335,229.773446 L480.562735,229.773446 C486.832697,229.862119 492.664701,226.567925 495.825559,221.152275 C498.986417,215.736625 498.986417,209.038567 495.825559,203.622917 C492.664701,198.207267 486.832697,194.913073 480.562735,195.001746 L411.019335,195.001746 Z M550.106134,195.001746 C543.836173,194.913073 538.004168,198.207267 534.84331,203.622917 C531.682452,209.038567 531.682452,215.736625 534.84331,221.152275 C538.004168,226.567925 543.836173,229.862119 550.106134,229.773446 L619.649534,229.773446 C625.919496,229.862119 631.7515,226.567925 634.912358,221.152275 C638.073216,215.736625 638.073216,209.038567 634.912358,203.622917 C631.7515,198.207267 625.919496,194.913073 619.649534,195.001746 L550.106134,195.001746 Z M689.192934,195.001746 C682.922972,194.913073 677.090968,198.207267 673.93011,203.622917 C670.769252,209.038567 670.769252,215.736625 673.93011,221.152275 C677.090968,226.567925 682.922972,229.862119 689.192934,229.773446 L810.893883,229.773446 L810.893883,351.474395 C810.80521,357.744357 814.099404,363.576361 819.515054,366.737219 C824.930704,369.898077 831.628762,369.898077 837.044412,366.737219 C842.460062,363.576361 845.754256,357.744357 845.665583,351.474395 L845.665583,212.387596 C845.664623,202.786054 837.881275,195.002706 828.279733,195.001746 L689.192934,195.001746 Z M202.117482,403.394246 C192.528904,403.54413 184.871976,411.428945 185.003286,421.017795 L185.003286,490.561195 C184.914613,496.831156 188.208808,502.663161 193.624457,505.824019 C199.040107,508.984877 205.738165,508.984877 211.153815,505.824019 C216.569465,502.663161 219.863659,496.831156 219.774986,490.561195 L219.774986,421.017795 C219.839339,416.318394 217.998558,411.793095 214.672071,408.473005 C211.345584,405.152915 206.816751,403.320847 202.117482,403.394246 Z M828.008079,403.394246 C818.419501,403.54413 810.762573,411.428945 810.893883,421.017795 L810.893883,490.561195 C810.80521,496.831156 814.099404,502.663161 819.515054,505.824019 C824.930704,508.984877 831.628762,508.984877 837.044412,505.824019 C842.460062,502.663161 845.754256,496.831156 845.665583,490.561195 L845.665583,421.017795 C845.729936,416.318394 843.889155,411.793095 840.562668,408.473005 C837.236181,405.152915 832.707348,403.320847 828.008079,403.394246 Z M202.117482,542.481045 C192.528904,542.63093 184.871976,550.515744 185.003286,560.104594 L185.003286,629.647994 C184.914613,635.917956 188.208808,641.74996 193.624457,644.910818 C199.040107,648.071676 205.738165,648.071676 211.153815,644.910818 C216.569465,641.74996 219.863659,635.917956 219.774986,629.647994 L219.774986,560.104594 C219.839339,555.405193 217.998558,550.879894 214.672071,547.559804 C211.345584,544.239714 206.816751,542.407647 202.117482,542.481045 Z M828.008079,542.481045 C818.419501,542.63093 810.762573,550.515744 810.893883,560.104594 L810.893883,629.647994 C810.80521,635.917956 814.099404,641.74996 819.515054,644.910818 C824.930704,648.071676 831.628762,648.071676 837.044412,644.910818 C842.460062,641.74996 845.754256,635.917956 845.665583,629.647994 L845.665583,560.104594 C845.729936,555.405193 843.889155,550.879894 840.562668,547.559804 C837.236181,544.239714 832.707348,542.407647 828.008079,542.481045 Z M202.117482,681.567844 C192.528904,681.717729 184.871976,689.602543 185.001622,699.191394 L185.001622,838.278193 C185.004246,847.879735 192.787594,855.663083 202.389136,855.664043 L341.475936,855.664043 C347.745897,855.752716 353.577902,852.458521 356.73876,847.042872 C359.899618,841.627222 359.899618,834.929164 356.73876,829.513514 C353.577902,824.097864 347.745897,820.80367 341.475936,820.892343 L219.774986,820.892343 L219.774986,699.191394 C219.839339,694.491992 217.998558,689.966694 214.672071,686.646604 C211.345584,683.326514 206.816751,681.494446 202.117482,681.567844 Z M828.008079,681.565721 C818.419501,681.717729 810.762573,689.602543 810.893883,699.191394 L810.893883,820.892343 L689.192934,820.892343 C682.922972,820.80367 677.090968,824.097864 673.93011,829.513514 C670.769252,834.929164 670.769252,841.627222 673.93011,847.042872 C677.090968,852.458521 682.922972,855.752716 689.192934,855.664043 L810.893883,855.664043 L810.893883,977.364992 C810.80521,983.634954 814.099404,989.466958 819.515054,992.627816 C824.930704,995.788674 831.628762,995.788674 837.044412,992.627816 C842.460062,989.466958 845.754256,983.634954 845.665583,977.364992 L845.665583,855.664043 L967.366532,855.664043 C973.636494,855.752716 979.468498,852.458521 982.629356,847.042872 C985.790215,841.627222 985.790215,834.929164 982.629356,829.513514 C979.468498,824.097864 973.636494,820.80367 967.366532,820.892343 L845.665583,820.892343 L845.665583,699.191394 C845.729936,694.491992 843.889155,689.966694 840.562668,686.646604 C837.236181,683.326514 832.707348,681.494446 828.008079,681.565721 Z M411.019335,820.892343 C404.749373,820.80367 398.917369,824.097864 395.756511,829.513514 C392.595653,834.929164 392.595653,841.627222 395.756511,847.042872 C398.917369,852.458521 404.749373,855.752716 411.019335,855.664043 L480.562735,855.664043 C486.832697,855.752716 492.664701,852.458521 495.825559,847.042872 C498.986417,841.627222 498.986417,834.929164 495.825559,829.513514 C492.664701,824.097864 486.832697,820.80367 480.562735,820.892343 L411.019335,820.892343 Z M550.106134,820.892343 C543.836173,820.80367 538.004168,824.097864 534.84331,829.513514 C531.682452,834.929164 531.682452,841.627222 534.84331,847.042872 C538.004168,852.458521 543.836173,855.752716 550.106134,855.664043 L619.649534,855.664043 C625.919496,855.752716 631.7515,852.458521 634.912358,847.042872 C638.073216,841.627222 638.073216,834.929164 634.912358,829.513514 C631.7515,824.097864 625.919496,820.80367 619.649534,820.892343 L550.106134,820.892343 Z" id="Shape" fill="#000000" fill-rule="nonzero"></path>
    </g>
</svg>